<svg xmlns="http://www.w3.org/2000/svg" viewBox="0 0 800 480" fill="none">
<rect width="800" height="480" fill="#eae7f3"/><rect x="105" y="82" width="611" height="352" rx="6" fill="#afa4c5" opacity=".22"/><rect x="91" y="68" width="611" height="352" rx="6" fill="#fff"/>
<path d="M91 100h611" stroke="#e9e5f1"/><circle cx="110" cy="84" r="3" fill="#c7bbd9"/><circle cx="121" cy="84" r="3" fill="#c7bbd9"/><circle cx="132" cy="84" r="3" fill="#c7bbd9"/><text x="158" y="88" fill="#a293b6" font-family="Arial,sans-serif" font-size="10">GAME REMIX / YOUR RULES</text>
<rect x="92" y="101" width="143" height="318" fill="#f7f5fa"/><text x="111" y="137" fill="#9a88b1" font-family="Arial,sans-serif" font-size="10">MAKE IT YOURS</text><text x="112" y="176" fill="#ac9bbc" font-family="Arial,sans-serif" font-size="9">PLAYER SPEED</text><path d="M112 194h103" stroke="#e0d7ea" stroke-width="4" stroke-linecap="round"/><path d="M112 194h67" stroke="#b3a0c7" stroke-width="4" stroke-linecap="round"/><circle cx="179" cy="194" r="5" fill="#a28cbb"/>
<text x="112" y="231" fill="#ac9bbc" font-family="Arial,sans-serif" font-size="9">NEW LEVELS</text><rect x="112" y="246" width="102" height="23" rx="3" fill="#e9e2f1"/><text x="124" y="262" fill="#9780ad" font-family="Arial,sans-serif" font-size="9">Level 01 / Remix</text><text x="112" y="300" fill="#ac9bbc" font-family="Arial,sans-serif" font-size="9">VISUAL STYLE</text><rect x="112" y="315" width="22" height="22" rx="3" fill="#b8aad0"/><rect x="145" y="315" width="22" height="22" rx="3" fill="#b9cdaa"/><rect x="178" y="315" width="22" height="22" rx="3" fill="#e1d7a5"/><rect x="111" y="370" width="104" height="25" rx="3" fill="#a18db7"/><text x="137" y="387" fill="#fff" font-family="Arial,sans-serif" font-size="9">PLAY TEST</text>
<text x="258" y="139" fill="#79648f" font-family="Arial,sans-serif" font-size="22" font-weight="700">Same game. Your own twist.</text><text x="258" y="159" fill="#ac9dbb" font-family="Arial,sans-serif" font-size="9">RULES / LEVELS / LOOK &amp; FEEL</text>
<rect x="256" y="180" width="420" height="215" rx="4" fill="#edf1f7"/><text x="272" y="202" fill="#9aaac0" font-family="Arial,sans-serif" font-size="9">LEVEL 01</text><text x="598" y="202" fill="#9aaac0" font-family="Arial,sans-serif" font-size="9">SCORE 030</text><path d="M271 373h388" stroke="#c5d5bd" stroke-width="13"/><rect x="322" y="321" width="80" height="12" rx="2" fill="#b0c1ad"/><rect x="443" y="282" width="80" height="12" rx="2" fill="#b0c1ad"/><rect x="565" y="245" width="65" height="12" rx="2" fill="#b0c1ad"/>
<rect x="342" y="286" width="23" height="25" rx="3" fill="#b2a0c8"/><rect x="346" y="278" width="15" height="14" rx="2" fill="#cec2dd"/><circle cx="357" cy="284" r="2" fill="#817092"/><path d="M344 311v7m19-7v7" stroke="#9985b3" stroke-width="4"/><g fill="#e0d69b"><circle cx="458" cy="261" r="6"/><circle cx="483" cy="261" r="6"/><circle cx="508" cy="261" r="6"/></g><path d="M620 229v-25" stroke="#b1a0c6" stroke-width="2"/><path d="m621 204 20 7-20 7z" fill="#b6a3cc"/>
<path d="M365 287c31-56 60-48 79-23" stroke="#c9bedb" stroke-width="2" stroke-dasharray="4 5"/><rect x="474" y="346" width="183" height="33" rx="3" fill="#fffdf9" stroke="#ded9c5"/><text x="490" y="367" fill="#9ca17e" font-family="Arial,sans-serif" font-size="10">NEW RULES. PLAYABLE RESULT.</text>
</svg>
