<svg xmlns="http://www.w3.org/2000/svg" viewBox="0 0 800 480" fill="none">
<rect width="800" height="480" fill="#e4ecf4"/><rect x="107" y="91" width="595" height="345" rx="5" fill="#9fb6c9" opacity=".25"/><rect x="92" y="75" width="595" height="345" rx="5" fill="#fcfdff"/>
<path d="M92 108h595" stroke="#e2e9f0"/><circle cx="109" cy="92" r="3" fill="#b9cbd8"/><circle cx="120" cy="92" r="3" fill="#b9cbd8"/><circle cx="131" cy="92" r="3" fill="#b9cbd8"/><text x="156" y="95" fill="#7c97ac" font-family="Arial,sans-serif" font-size="10">PRESENT / 100</text>
<rect x="93" y="109" width="101" height="310" fill="#f1f5f9"/><rect x="108" y="133" width="69" height="44" rx="2" fill="#dce8f1" stroke="#8da9c0"/><path d="M118 146h40m-40 7h30" stroke="#97b1c5" stroke-width="2"/><rect x="108" y="192" width="69" height="44" rx="2" fill="#fff"/><path d="M118 207h40m-40 8h35" stroke="#ccd9e4" stroke-width="2"/><rect x="108" y="251" width="69" height="44" rx="2" fill="#fff"/><path d="M118 266h40m-40 8h30" stroke="#ccd9e4" stroke-width="2"/>
<rect x="215" y="133" width="450" height="256" fill="#e9f0f5"/><text x="242" y="162" fill="#8ca9bc" font-family="Arial,sans-serif" font-size="9">PROJECT UPDATE / 01</text><text x="242" y="212" fill="#456781" font-family="Arial,sans-serif" font-size="32" font-weight="700">Make your</text><text x="242" y="251" fill="#456781" font-family="Arial,sans-serif" font-size="32" font-weight="700">point clear.</text><path d="M243 278h139m-139 11h101" stroke="#b4c9d9" stroke-width="3"/><text x="243" y="362" fill="#8ba6ba" font-family="Arial,sans-serif" font-size="9">FROM INFORMATION TO A STORY</text>
<rect x="498" y="203" width="28" height="122" rx="2" fill="#c3d4e1"/><rect x="540" y="174" width="28" height="151" rx="2" fill="#9bb9cf"/><rect x="582" y="152" width="28" height="173" rx="2" fill="#7398b4"/><path d="M487 328h137" stroke="#bfd0dc"/><text x="587" y="362" fill="#91a9bb" font-family="Arial,sans-serif" font-size="8">01 / 10</text>
</svg>
